# xmcd
#
# Track frame offsets:
#	150
#	15652
#	30473
#	46168
#	61153
#	75666
#	90743
#	105209
#	119037
#	132459
#	146663
#	160369
#	176271
#	190743
#	205006
#	219805
#	234278
#	248805
#	263638
#	278591
#
# Disc length: 3914 seconds
#
# Revision: 0
# Processed by: cddbd v1.5.2PL0 Copyright (c) Steve Scherf et al.
# Submitted via: EasyCDDAExtractor 16.0.6.1
#
DISCID=010f4814
DTITLE=Συλλογικός δίσκος - Τα ρεμπέτικα Β 1922-1937 11 Β
DYEAR=2010
DGENRE=Ρεμπέτικη
TTITLE0=Καλυβόπουλος Αντώνης - Παραπονούνται οι μάγκες μας [χασάπ., Γ. Εϊτζιρί
TTITLE0=δης, Αθ 5-1936]
TTITLE1=Βαμβακάρης Μάρκος - Πρέπει να χτίσω ένα τζαμί [χασάπ., Μ. Βαμβακάρης, 
TTITLE1=Αθήνα 1935]
TTITLE2=Δελλιάς Ανέστης - Κουτσαβάκι [ζεϊμπ., Α. Δελλιάς, Αθήνα 5.1936]
TTITLE3=Εσκενάζυ Ρόζα - Η γλεντζού η Σμυρνιά [τσιφτ., Δ. Λαδ/λος ή Μανησαλής, 
TTITLE3=Αθ 12.1934]
TTITLE4=Ρούκουνας Κώστας ή Σαμιωτάκης - Μιά μπαμπέσσα θέλησαν [χασάπ., Σ.Περισ
TTITLE4=τέρης-Κ.Μακρής, Αθ1936]
TTITLE5=Περπινιάδης Στελλάκης - Είναι δυό χρονάκια [χασάπ., Γ.Ροβερτάκης-Δ.Μπα
TTITLE5=ρούσης, Αθ1936]
TTITLE6=Εσκενάζυ Ρόζα - Η πουλημένη στην ξενητειά [ζεϊμπ. καμ., Παν. Τούντας, 
TTITLE6=Αθ12.1935]
TTITLE7=Ρούκουνας Κώστας ή Σαμιωτάκης - Ερινάκι [Κ. Σκαρβέλης, Αθήνα 1936]
TTITLE8=Κάβουρας Γιώργος - Ο σερέτης [ζεϊμπ., Ιάκ. Μοντανάρης, Αθήνα 1935 ή 36
TTITLE8=]
TTITLE9=Εσκενάζυ Ρόζα - Του Πειραιά το αλάνι [χασάπ., Δ.Μπαρούσης-Ν.Μάθεσης,Αθ
TTITLE9=20.11.1934]
TTITLE10=Περπινιάδης Στελλάκης - Βαρβάρα [χασάπ., Παν. Τούντας, Αθήνα 1936]
TTITLE11=Βαμβακάρης Μάρκος - Ο Μάρκος μαθητής [ζεϊμπ., Μ. Βαμβακάρης, Αθήνα 19
TTITLE11=35]
TTITLE12=Μαρίκα η Πολίτισσα - Είσαι φονιά [καρσιλ., Γρ. Ασίκης, Αθήνα 1936]
TTITLE13=Περπινιάδης Στελλάκης - Μάγκες μου συμμορφωθείτε [ζεϊμπ., Στ. Περπινι
TTITLE13=άδης, Αθήνα 1936]
TTITLE14=Ρούκουνας Κώστας ή Σαμιωτάκης - Σαν πεθάνω [ζεϊμπ., Ιάκ. Μοντανάρης, 
TTITLE14=Αθήνα  1935]
TTITLE15=Αμπατζή Ρίτα - Δεν σ' αγαπώ, δεν σ' αγαπώ [χασάπ.,Κ.Καρίπης-Γ.Πετροπο
TTITLE15=υλέας,Αθ1937]
TTITLE16=Βαμβακάρης Μάρκος - Το 1912 [ζεϊμπ., Μ. Βαμβακάρης, Αθήνα 1936]
TTITLE17=Περπινιάδης Στελλάκης - Η γάτα [χασάπ., Στ. Περπινιάδης, Αθήνα 1937]
TTITLE18=Εσκενάζυ Ρόζα-χορωδία - Αραπίνα μου σκερτσόζα [τσιφτ., Ρ. Εσκενάζυ, Α
TTITLE18=θήνα 1936]
TTITLE19=Ρούκουνας Κώστας ή Σαμιωτάκης - Κουβέντα με τον Χάρο [Παν. Τούντας, Α
TTITLE19=θήνα 1935 ή 36]
EXTD=
EXTT0=
EXTT1=
EXTT2=
EXTT3=
EXTT4=
EXTT5=
EXTT6=
EXTT7=
EXTT8=
EXTT9=
EXTT10=
EXTT11=
EXTT12=
EXTT13=
EXTT14=
EXTT15=
EXTT16=
EXTT17=
EXTT18=
EXTT19=
PLAYORDER=
